<?xml version="1.0" encoding="utf-8"?>
<!-- Generator: Adobe Illustrator 24.0.3, SVG Export Plug-In . SVG Version: 6.00 Build 0)  -->
<svg version="1.1" id="Layer_1" xmlns="http://www.w3.org/2000/svg" xmlns:xlink="http://www.w3.org/1999/xlink" x="0px" y="0px"
	 viewBox="0 0 560 288" style="enable-background:new 0 0 560 288;" xml:space="preserve">
<style type="text/css">
	.st0{fill-rule:evenodd;clip-rule:evenodd;stroke:#000000;stroke-width:0.5669;stroke-miterlimit:10;}
</style>
<g>
	<path d="M239.03,199.24c3.36-0.9,7.24,1.29,8.05,4.69c2.28,6.93-6.64,11.26-12.04,5.35C232.3,205.72,234.75,200.11,239.03,199.24
		L239.03,199.24z M412.4,217.93c5.94-2.33,13.01-3.33,18.87-0.19c7.07,4.2,12.52,14.18,6.88,21.96c-2.73,2.5-6.83,2.92-10.38,2.55
		c-3.21-0.31-4.62-0.15-5.93,0.15c-3.26,0.75-2.92,2.94-0.9,3.63c3.8,1.49,7.97,0.27,11.89,0.97c3.23,0.93,4.98,5.27,2.82,8.05
		c-2.6,2.97-6.93,3.16-10.63,3.35c-6.86,0.48-14.34-1.04-19.35-6.08C395.77,241.71,398.59,224.16,412.4,217.93L412.4,217.93z
		 M419.75,226.17L419.75,226.17c-2.23,0.59-2.94,3.97-1.1,5.37c1.95,0.48,5.62,0.19,5.27-2.56
		C424.15,226.71,421.62,225.44,419.75,226.17L419.75,226.17z M390.49,216.5c2.36-0.83,6.06-1.05,7.44,1.55
		c0.88,1.24,0.97,2.73,0.75,4.21c-0.76,5.45-5.52,3.75-8.46,7.59c-3.24,4.14-2.87,9.53-3.33,14.47c-0.2,3.23,0.46,6.61-0.63,9.75
		c-2.39,4.89-10.75,4.77-12.89-0.31c-0.8-2.23-0.85-4.64-0.99-6.98c0-7.54-0.02-15.12,0-22.66c0.14-2.67,0.71-6.06,3.48-7.17
		C380.69,214.75,385.78,219.46,390.49,216.5L390.49,216.5z M331.33,216.03c3.58-0.59,7.34,1.8,7.92,5.5
		c0.97,6.2-0.36,12.55,0.76,18.75c0.32,2.48,2.28,4.84,4.79,5.25c2.62,0.03,4.64-2.36,5.18-4.74c1.49-6.62-0.36-13.52,1.14-20.09
		c1.34-5.33,9.09-6.18,12.42-2.29c1.34,2.14,1.65,4.77,1.65,7.29c-0.02,8.14,0,16.26,0,24.39c0.08,2.7-1.05,5.76-3.72,6.86
		c-4.08,2.04-8.31-1.73-12.5-0.39c-4.3,1.39-8.99,2.68-13.44,1.21c-5.49-1.7-9.63-6.93-10.11-12.65
		c-0.25-1.51-0.59-13.66-0.25-20.55C325.37,220.26,326.13,216.74,331.33,216.03L331.33,216.03z M247,254.07
		c-2.41,4.86-10.65,4.77-12.87-0.24c-0.97-2.8-0.48-5.81-0.59-8.66c0.1-3.72,0.1-13.1,0-16.82c0.12-2.87-0.37-5.88,0.59-8.68
		c2.23-5.01,10.46-5.1,12.87-0.24C249.03,225.57,248.83,248.59,247,254.07L247,254.07z M445.73,223.02
		c2.87-5.27,9.04-7.9,14.83-7.85c3.19-0.05,6.79-0.19,9.43,1.97c2.31,1.58,2.5,5.25,0.53,7.15c-1.92,2.24-5.25,1.7-7.73,2.9
		c-1.68,0.99-0.31,2.84,0.92,3.53c3.74,2.56,8.46,4.6,10.21,9.12c2.39,5.27,0.44,11.94-4.37,15.13c-4.84,3.75-11.26,3.53-17.07,3.26
		c-2.87-0.29-5.96-1.29-7.54-3.89c-0.9-2.16-0.65-5.03,1.44-6.42c2.8-2.07,6.93-0.42,9.24-1c0.54-0.14,1-0.41,1.29-0.87
		c1.39-2.23-0.42-3.02-1.95-4.01c-0.08-0.05-0.17-0.1-0.25-0.17C446.98,236.93,441.53,233.45,445.73,223.02L445.73,223.02z
		 M268.23,237.48c0.2,2.9,1.55,5.71,4.08,7.3c3.21,2.29,7.44,1.34,10.9,2.96c3.28,1.53,3.91,6.66,0.9,8.78
		c-3.52,2.58-8.14,1.68-12.2,1.77c-10.48-0.53-19.13-10-19.41-20.37c0-0.12,0-0.25,0-0.37l0,0l0,0l0,0v-0.02l0,0l0,0l0,0l0,0v-0.02
		l0,0v-0.02l0,0l0,0l0,0v-0.02l0,0l0,0l0,0v-0.02l0,0l0,0l0,0l0,0v-0.02l0,0v-0.02l0,0l0,0l0,0v-0.02l0,0l0,0l0,0v-0.02l0,0
		c0-0.12,0-0.24,0-0.36c0.29-10.38,8.93-19.86,19.41-20.38c4.06,0.1,8.68-0.8,12.2,1.77c3.01,2.14,2.38,7.25-0.9,8.8
		c-3.47,1.6-7.69,0.66-10.9,2.96C269.77,231.77,268.43,234.57,268.23,237.48L268.23,237.48z M308.99,211.01
		c0.05,1.7-0.19,3.45-0.2,5.13c7.29,0.05,8.25,1.05,8.8,6.06c0.22,2.04-0.2,4.08-2.21,5.06c-1.9,0.53-2.36,0.27-5.72,0.56
		c0.32,6.06-2,14.01,3.53,18.06c1.78,1.31,3.77,2.41,4.28,4.69c0.99,2.87-0.87,6.23-3.72,7.15c-6.03,1.99-13.61-0.31-16.49-6.23
		c-3.97-7.71-1.61-23.29-1.72-23.49c-1.97-0.05-6.2-0.14-7.42-1.95c-1-2.02-0.66-5.88,1.31-7.15c2.16-1.36,4.91-1.1,7.27-1.99
		c0.2-1.39,0.25-2.8,0.31-4.2C297.27,203.61,308.74,202.76,308.99,211.01L308.99,211.01z M193.7,200.82
		c3.62-0.82,7.39-0.27,11.07-0.42c6.61-0.29,13.89,0.92,18.84,5.69c10.51,9.73,5.38,26.31-7.98,30.54
		c-3.89,1.65-8.53,0.85-12.16,3.21c-3.8,4.43-0.15,11.13-3.69,15.66c-3.11,3.41-9.83,2.75-11.77-1.61c-0.58-1.48-0.7-3.07-0.68-4.64
		c0.07-13.74,0-27.52,0.05-41.26C187.33,204.41,190.11,201.25,193.7,200.82L193.7,200.82z M204.36,213.04L204.36,213.04
		c-3.47,2.48-3.11,7.78-1.43,11.24c3.4,3.21,9.46,0.71,10.45-3.62C215.22,215.67,208.88,210.59,204.36,213.04L204.36,213.04z
		 M68.68,204.85c10.99-7.85,28.11-6.54,36.93,4.06c3.62,4.18,4.86,9.73,7.78,14.37c0.8-0.36,1.77-0.63,2.11-1.51
		c2.11-3.89,3.45-8.17,6.27-11.64c9.55-12.99,31.19-13.83,41.87-1.82c4.91,5.62,7.22,13.23,7.05,20.65
		c0.24,8.71-3.06,17.8-9.87,23.47c-10.87,9.1-29.23,8.36-38.49-2.79c-3.31-3.57-4.74-8.31-6.81-12.59c-0.34-1.1-1.43-1.53-2.34-1.99
		c-2.77,4.94-4.28,10.68-8.31,14.83c-9.89,11.18-29.35,11.84-39.81,1.12c-6.56-6.49-8.71-16.31-7.8-25.26
		C57.91,217.62,61.94,209.62,68.68,204.85L68.68,204.85z M84.11,212.24L84.11,212.24c-4.57,0.27-8.29,3.8-9.9,7.93
		c-1.85,4.04-1.58,8.59-1.41,12.93c0.48,5.37,3.53,10.99,8.92,12.67c3.47,1.27,7.42-0.03,9.94-2.55c3.02-2.65,4.25-6.66,4.87-10.5
		c0.56-4.81,0.02-9.87-2.23-14.22C92.34,214.85,88.39,211.98,84.11,212.24L84.11,212.24z M143.13,212.2L143.13,212.2
		c-3.13,0.12-6.06,1.6-8.02,4.04c-4.16,4.91-4.33,11.8-3.67,17.9c0.78,5.1,3.92,10.31,9.17,11.7c5.35,1.72,10.79-2.36,12.81-7.15
		c2.48-6.06,2.48-13.2-0.14-19.21C151.59,215.45,147.61,212.24,143.13,212.2L143.13,212.2z"/>
	<path class="st0" d="M487.63,103.45c-1.14-14.74-4.54-24.87-13.2-36.84c-22.45-31.05-60.49-37.05-98.52-26.92
		c-23,6.11-57.16,19.44-78.75,28.94c-13.72,5.27-27.47,10.49-41.35,15.4c-0.09-0.17-0.17-0.35-0.24-0.57
		c-2.31-7.44-5.54-14.39-10.73-20.2c-0.76-0.76-0.63-1.95-0.31-2.87c1.38-4.01,4.47-7.44,4.6-11.84c0.68-3.86-0.93-7.56-3.23-10.51
		c0.29,6.1-3.63,11.38-8.83,14.13c-3.36,1.77-8.83,2.89-7.51-2.92c0.73-3.21,2.02-6.34,2.21-9.68c1.1-5.13,1.75-11.65-2.58-15.51
		c-1.09,3.7-1.14,7.63-2.48,11.26c-1.22,3.53-3.14,7.25-6.11,9.6c-4.47,3.55-13.04,3.38-13.54-3.65
		c-0.39-5.66-0.56-17.31-7.07-19.31c-0.19,2.94,0.25,5.96-0.61,8.83c-1.14,3.77-2.79,7.39-4.77,10.77
		c-3.55,5.37-11.77,9.77-15.68,2.51c-2.79-6.45-0.54-10.33-2.55-14.61c-1.7,4.47-4.35,8.46-6.54,12.72
		c-3.55,5.23-8.09,9.68-12.98,13.67c-8.19,6.68-20.84,17.8-34.55,26.24c-13.32,8.22-25.44,13.47-38.64,20.67
		c-1.6,0.88-3.21,1.78-4.86,2.73c-1.19,0.68-2.41,1.31-3.58,1.99c-2.72,1.6-3.4,2.79-0.05,3.79c1.05,0.32,2.17,0.54,3.3,0.83
		c17.44,4.5,41.87,12.45,52.69,19.87c10.02,6.23,2.77,16-3.11,21.35c8.05,0.78,12.25-3.96,16.19-10.14
		c3.06-4.42,10.99-4.33,13.4,0.71c3.09,4.7-2.14,10.4-6,12.86c-4.33,2.75-9.9,3.18-14.76,4.69c10.31,2.06,22.17,1.31,30.45-5.76
		c3.72-2.84,11.36-3.75,15.08-0.59c2.82,2.85,2.67,7.85,0.07,10.79c-2.8,3.82-7.24,5.89-10.58,9.09c5.42-0.15,11.28-1.21,15.37-5.04
		c3.96-3.16,5.38-8.95,10.48-10.7c7.29-1.92,11.11,1.32,11.28,7.29c0.15,5.3-3.14,7.78-5.98,11.97c9.41-2.02,16.05-9.8,15.76-19.45
		c-0.03-1.65-0.1-3.31-0.02-4.96c5.18-5.55,16.53-2.07,18.9,6.25c1.07,2.79,0.49,5.78,0.05,8.65c6.47-8.85,4.3-14.39,2.92-19.24
		c-1.14-3.94-1.26-5.61,0.97-9.17c2.72-4.38,7.56-9.82,9.39-14.17c0,0,0,0,0,0l46.38,22.04c40.01,19.99,89.85,41.91,113.28,43.04
		C460.59,194.11,491.13,149.12,487.63,103.45z M222.1,140.9c-31.54,17.49-57.51-9.22-90.79-23.76c-7.37-4.25-15.46-7.05-23.24-10.29
		c22.59-8.03,47.03-35.65,77.13-44.01c23.94-6.12,46.37-1.34,56.62,26c-1.58,0.53-3.16,1.06-4.75,1.58
		c-1.31,0.42-2.39,0.7-3.38-0.54l0.02,0.15c-5.36-16.91-25.89-25.32-43.59-21.01c-32.2,7.86-37.22,60.23,3.52,69.06
		c15.73,1.88,30.93-3.78,38.43-17.53c1.93-1.96,3.36-1.44,5.97-0.33l2.58,1.23C236.15,131.87,233.16,134.77,222.1,140.9z
		 M219.5,115.34c-3.58,2-8.02,2.68-11.75,1.48c-6.32-1.65-11.02-7.86-11.01-14.34c0-11.62,12.23-18.19,22.2-13.23
		C228.99,94.24,229.2,109.9,219.5,115.34z M431.32,122.86c-7.22-0.8-12.89-7.54-12.94-14.69c0.08-7.18,5.86-13.83,13.04-14.62
		C455.41,92.22,452.66,126.46,431.32,122.86z"/>
</g>
</svg>
